<svg width="20" height="20" viewBox="0 0 20 20" fill="none" xmlns="http://www.w3.org/2000/svg">
<g clip-path="url(#clip0_993_7)">
<path d="M16.3329 6.34167L19.9996 0H7.10795C5.89497 0.0415361 4.71056 0.379122 3.65795 0.983333C2.54517 1.62536 1.62105 2.54907 0.978532 3.66156C0.336013 4.77406 -0.0022583 6.03612 -0.0022583 7.32083C-0.0022583 8.60554 0.336013 9.86761 0.978532 10.9801C1.62105 12.0926 2.54517 13.0163 3.65795 13.6583L-0.000382741 20H12.8913C14.1043 19.9585 15.2887 19.6209 16.3413 19.0167C17.4541 18.3746 18.3782 17.4509 19.0207 16.3384C19.6632 15.2259 20.0015 13.9639 20.0015 12.6792C20.0015 11.3945 19.6632 10.1324 19.0207 9.0199C18.3782 7.9074 17.4541 6.98369 16.3413 6.34167H16.3329ZM2.42462 10.15C1.67531 8.85131 1.47209 7.30831 1.85958 5.85989C2.24708 4.41147 3.19361 3.17606 4.49128 2.425C5.30046 1.96203 6.20969 1.70184 7.14128 1.66667H17.1413L14.8246 5.68333C13.2819 5.21279 11.6267 5.26762 10.1185 5.83921C8.61036 6.41081 7.33458 7.46684 6.49128 8.84167L4.54128 12.2167C3.66709 11.7248 2.93724 11.0122 2.42462 10.15Z" fill="white"/>
</g>
<defs>
<clipPath id="clip0_993_7">
<rect width="20" height="20" fill="white"/>
</clipPath>
</defs>
</svg>
